<?xml version="1.0" encoding="UTF-8"?>
<svg id="Layer_1" xmlns="http://www.w3.org/2000/svg" version="1.1" viewBox="0 0 555 283">
  <!-- Generator: Adobe Illustrator 29.7.1, SVG Export Plug-In . SVG Version: 2.1.1 Build 8)  -->
  <defs>
    <style>
      .st0 {
        fill: #e08370;
      }

      .st1 {
        fill: #0d0d0d;
      }
    </style>
  </defs>
  <path class="st1" d="M222.5,133.8h-3.1V63.1h3.1v70.7Z"/>
  <path class="st1" d="M244,133.8h-3.1v-50.4h2.5v11.8c2.4-7.9,8.6-13.2,18.3-13.2h.2c12.6,0,19.3,8.6,19.3,21.5v30.2h-3.1v-31c0-10.6-5.8-17.8-16.5-17.8s-17.6,7.4-17.6,18.2v30.6Z"/>
  <path class="st1" d="M315.6,133.8h-7.2l-18.9-50.4h3.2l17.7,47.5h3.1l15.9-47.5h3.1l-17,50.4Z"/>
  <path class="st1" d="M344.6,71.7c-2.1,0-3.3-1.3-3.3-3.2s1.2-3.2,3.3-3.2,3.3,1.4,3.3,3.2-1.2,3.2-3.3,3.2ZM348.3,133.8h-3.1v-47.5h-8.7v-2.9h11.8v50.4Z"/>
  <path class="st1" d="M379,135.2c-12.3,0-18.9-6.4-18.9-15.1h3.1c0,6.7,4.7,12.2,15.8,12.2s15.8-5.6,15.8-12.2-5.5-10-12.9-10.8l-6.2-.7c-8.4-1-13.5-5.5-13.5-12.8s6-13.9,16.8-13.9,16.8,5.7,16.8,13.9h-3.1c0-6.3-4.9-11-13.7-11s-13.7,5.3-13.7,11.2,3.7,9,10.7,9.8l6.2.7c8.8,1,15.7,5.2,15.7,13.8s-6.6,14.9-18.9,14.9Z"/>
  <path class="st1" d="M412,71.7c-2.1,0-3.3-1.3-3.3-3.2s1.2-3.2,3.3-3.2,3.3,1.4,3.3,3.2-1.2,3.2-3.3,3.2ZM415.7,133.8h-3.1v-47.5h-8.7v-2.9h11.8v50.4Z"/>
  <path class="st1" d="M456.5,135.4c-11.1,0-18.9-6.6-22-15.1v13.6h-2.5V63.1h3.1v32.6c3.4-8.1,10.8-13.9,21.4-13.9,15.6,0,24.3,13.1,24.3,26.4v.6c0,12.6-8.3,26.4-24.3,26.4ZM456.3,132.5c13.9,0,21.4-11.8,21.4-23.8s-7.8-23.8-21.4-23.8-21.4,9.2-21.4,21.2v5.2c0,11.2,8.2,21.2,21.4,21.2Z"/>
  <path class="st1" d="M495.7,133.8h-3.1v-67.8h-7.9v-2.9h11v70.7Z"/>
  <path class="st1" d="M531.9,135.4c-16.9,0-24.6-13.3-24.6-26.7v-.6c0-13.2,8.1-26.2,24-26.2s23.2,11.5,23.2,23.5v3.1h-44.4c0,12.8,7.1,23.9,21.7,23.9s17.2-5.7,18.8-12.8h3.1c-2,9.1-9.8,15.7-21.9,15.7ZM531.3,84.8c-12.9,0-20.1,9.5-21,20.8h41.4c-.4-11.7-7.9-20.8-20.3-20.8Z"/>
  <path class="st1" d="M248.7,219.9c-25.9,0-35.4-19.8-35.4-36.4v-1.2c0-17.9,10.9-36.4,33.8-36.4s27.8,9.8,29.6,24.5h-3.1c-1.7-13.8-12.6-21.6-26.5-21.6-20.1,0-30.7,16.2-30.7,34.1s9.1,34.1,32.3,34.1,18.6-3.5,23.9-9.4v-17.5h-26.6v-2.7h36.6v2.7h-6.9v18.4c-5.5,6.9-14.7,11.4-27,11.4Z"/>
  <path class="st1" d="M305.6,219.7c-9.6,0-17.5-5.5-17.5-15.6s6.7-15,18.3-15h16.8v-4.8c0-8.6-4.1-13.9-15.2-13.9s-10,.4-13.7,1v-2.9c3.8-.6,8.2-1,12.1-1,15,0,19.9,6.2,19.9,17.5v33.3h-2.5v-10.8c-2.6,8.2-9.9,12.2-18.1,12.2ZM305.8,217c8,0,17-4.2,17.3-16.9v-8.3h-17.3c-9.5,0-14.6,4.9-14.6,12.4s6.2,12.8,14.6,12.8Z"/>
  <path class="st1" d="M344.8,218.4h-3.1v-50.4h2.5v12.8c2.2-8.7,8.5-13.2,20.4-13.2h1.6v2.9h-2.4c-12.8,0-19.1,6.5-19.1,19.1v28.8Z"/>
  <path class="st1" d="M393.7,219.9c-15.6,0-24.3-13.1-24.3-26.4v-.6c0-12.6,8.3-26.4,24.3-26.4s18.1,6,21.4,14v-32.8h3.1v70.7h-2.5v-13.4c-3.2,8.7-10.9,14.9-22,14.9ZM393.9,217c12.8,0,21.4-9.2,21.4-21.2v-5.2c0-11.2-8.2-21.2-21.4-21.2s-21.4,11.8-21.4,23.8,7.8,23.8,21.4,23.8Z"/>
  <path class="st1" d="M454.4,219.9c-16.9,0-24.6-13.3-24.6-26.7v-.6c0-13.2,8.1-26.2,24-26.2s23.2,11.5,23.2,23.5v3.1h-44.4c0,12.8,7.1,23.9,21.7,23.9s17.2-5.7,18.8-12.8h3.1c-2,9.1-9.8,15.7-21.9,15.7ZM453.8,169.4c-12.9,0-20.1,9.5-21,20.8h41.4c-.4-11.7-7.9-20.8-20.3-20.8Z"/>
  <path class="st1" d="M490.8,218.4h-3.1v-50.4h2.5v11.8c2.4-7.9,8.6-13.2,18.3-13.2h.2c12.6,0,19.3,8.6,19.3,21.5v30.2h-3.1v-31c0-10.6-5.8-17.8-16.5-17.8s-17.6,7.4-17.6,18.2v30.6Z"/>
  <polygon class="st0" points="164.1 169.3 84.8 282.2 84.8 172.2 156 113.6 164.1 169.3"/>
  <path class="st0" d="M78.6,174.7v69l-13.7-8.6c-3.2-2-6.7-3.9-10.6-5.9-6.6-3.2-19.4-10.2-31.4-20.6-11.8-10.3-19.2-20.6-21.8-30.8-1.1-4.2-1.4-10.2-.9-18,.4-7,1.5-15.3,3.1-24.2,1.2-6.6,2.6-13.3,4.3-20l5.5-22.1,11.1,19.9c5.8,10.4,13.5,19.1,22.7,25.8,3.6,2.6,10.4,7.7,17,13.9,4.3,4,7.8,7.8,10.2,11.1,1.4,2,2.5,3.8,3.3,5.5.7,1.5,1,2.8,1.2,4.1"/>
  <path class="st0" d="M78.4.6v30.2c-.2,36.2-.2,79.2-.2,101.7v19l-14.7-12.1c-1.8-1.4-3.5-2.8-5.1-4.1l-1.2-1c-19.9-15.9-28.8-30.4-28.8-46.8s1.3-9.9,3.8-15.4c2.6-5.7,5.5-9.5,6.3-10.5L78.4.6Z"/>
  <polygon class="st0" points="133.3 95.3 133.3 119.4 84.8 161.4 84.8 18.3 133.3 95.3"/>
</svg>